<svg width="99" height="124" viewBox="0 0 99 124" fill="none" xmlns="http://www.w3.org/2000/svg">
<path d="M42.4336 28.8135H51.0374C60.4412 28.8135 68.986 32.6003 75.1794 38.7026C81.3717 44.8036 85.2163 53.2238 85.2163 62.4892C85.2163 71.7546 81.3729 80.1736 75.1794 86.2758C68.9872 92.3769 60.4412 96.165 51.0374 96.165H25.5325H20.5737H19.697C17.3658 96.165 15.4579 94.2851 15.4579 91.9883C15.4579 89.6914 17.3658 87.8116 19.697 87.8116H20.5737H25.5325H51.0374C58.1012 87.8116 64.5246 84.9616 69.1857 80.3703C73.8455 75.7791 76.7382 69.4491 76.7382 62.4892C76.7382 55.5306 73.8455 49.2006 69.1857 44.6081C64.5258 40.0169 58.1012 37.1668 51.0374 37.1668H42.4336H34.0019H33.9805V25.5637V13.2577V4.1643C33.9805 1.87362 35.8821 0 38.207 0C40.5319 0 42.4336 1.87362 42.4336 4.1643V13.2577V25.5637V28.8135Z" fill="white"/>
<path d="M31.9885 43.2492H38.0275H47.9878C58.7356 43.2492 67.514 51.8984 67.514 62.4879C67.514 73.0775 58.7356 81.7266 47.9878 81.7266H37.5653H32.7911H24.951C22.6198 81.7266 20.7119 79.8468 20.7119 77.5499C20.7119 75.2531 22.6198 73.3733 24.951 73.3733H32.6165H37.564H47.9865C54.0556 73.3733 59.0358 68.4652 59.0358 62.4867C59.0358 56.5069 54.0544 51.6001 47.9865 51.6001H38.0262H32.1618H20.8325C18.5013 51.6001 16.5934 49.7203 16.5934 47.4234C16.5934 45.1266 18.5013 43.2468 20.8325 43.2468H31.9873L31.9885 43.2492Z" fill="white"/>
<path fill-rule="evenodd" clip-rule="evenodd" d="M26.2396 58.2667H47.9576C50.2825 58.2667 52.1841 60.1403 52.1841 62.431C52.1841 64.7216 50.2825 66.5953 47.9576 66.5953H26.2396C23.9147 66.5953 22.0131 64.7216 22.0131 62.431C22.0131 60.1403 23.9147 58.2667 26.2396 58.2667Z" fill="white"/>
<path d="M5.8443 110.92H0V123.879H6.01261C9.01953 123.879 10.8797 122.528 10.8797 120.307C10.8797 118.585 9.82715 117.344 8.08002 117.03C9.50812 116.678 10.3723 115.586 10.3723 114.16C10.3723 112.16 8.64398 110.92 5.8443 110.92ZM5.71241 116.215H2.51834V113.068H5.71241C7.00863 113.05 7.79867 113.624 7.79867 114.605C7.79867 115.624 7.00989 116.217 5.71241 116.217V116.215ZM5.71241 121.732H2.51834V118.307H5.71241C7.31008 118.288 8.26842 118.937 8.26842 119.991C8.26842 121.102 7.31008 121.75 5.71241 121.731V121.732Z" fill="white"/>
<path d="M28.2292 123.879L25.3353 119.584C27.0259 118.88 27.9478 117.418 27.9478 115.381C27.9478 112.53 26.0123 110.92 22.6109 110.92H17.1246V123.879H19.643V120.065H22.6122C22.7818 120.065 22.9312 120.065 23.082 120.047L25.3554 123.879H28.2304H28.2292ZM19.6417 113.086H22.6109C24.49 113.086 25.5425 113.863 25.5425 115.456C25.5425 117.084 24.49 117.881 22.6109 117.881H19.6417V113.086Z" fill="white"/>
<path d="M44.771 123.879H47.4765L41.783 110.92H39.1704L33.4015 123.879H36.014C37.7812 119.723 38.3666 118.343 40.4114 113.567C42.5378 118.616 42.9184 119.522 44.771 123.879Z" fill="white"/>
<path d="M49.9233 110.92L55.1283 123.879H57.7409L63.0023 110.92H60.4087L56.4999 121.121L52.6301 110.92H49.9233Z" fill="white"/>
<path d="M74.4522 110.846C70.4869 110.846 67.4436 113.66 67.4436 117.4C67.4436 121.121 70.4882 123.991 74.4522 123.991C78.4175 123.991 81.4609 121.121 81.4609 117.4C81.4609 113.678 78.4162 110.846 74.4522 110.846ZM74.4899 113.067C76.8952 113.067 78.8873 114.956 78.8873 117.4C78.8873 119.844 76.8952 121.769 74.4899 121.769C72.0658 121.769 70.0172 119.844 70.0172 117.4C70.0172 114.956 72.0469 113.067 74.4899 113.067Z" fill="white"/>
<path d="M91.9914 110.846C88.0261 110.846 84.9828 113.66 84.9828 117.4C84.9828 121.121 88.0274 123.991 91.9914 123.991C95.9567 123.991 99.0001 121.121 99.0001 117.4C99.0001 113.678 95.9554 110.846 91.9914 110.846ZM92.0291 113.067C94.4344 113.067 96.4265 114.956 96.4265 117.4C96.4265 119.844 94.4344 121.769 92.0291 121.769C89.605 121.769 87.5564 119.844 87.5564 117.4C87.5564 114.956 89.5861 113.067 92.0291 113.067Z" fill="white"/>
<path fill-rule="evenodd" clip-rule="evenodd" d="M22.6536 0.730103C24.9785 0.730103 26.8802 2.60373 26.8802 4.8944V32.9988C26.8802 35.2894 24.9785 37.1631 22.6536 37.1631C20.3287 37.1631 18.4271 35.2894 18.4271 32.9988V4.8944C18.4271 2.60373 20.3287 0.730103 22.6536 0.730103Z" fill="white"/>
</svg>
